<?xml version="1.0" encoding="utf-8"?>
<!-- Generator: Adobe Illustrator 26.0.0, SVG Export Plug-In . SVG Version: 6.00 Build 0)  -->
<svg version="1.1" id="Layer_1" xmlns="http://www.w3.org/2000/svg" xmlns:xlink="http://www.w3.org/1999/xlink" x="0px" y="0px"
	 viewBox="0 0 74 74" style="enable-background:new 0 0 74 74;" xml:space="preserve">
<style type="text/css">
	.st0{fill:#D9EDFF;}
	.st1{fill:#CDE2F9;}
	.st2{fill:#FF9999;}
	.st3{fill:#F4878D;}
	.st4{fill:#FFFFFF;}
	.st5{fill:#E6E6E6;}
	.st6{fill:#B3D4F6;}
	.st7{fill:#7668F4;}
	.st8{fill:#343434;}
	.st9{fill:#F15A24;}
	.st10{fill:#FF734D;}
	.st11{opacity:0.5;fill:#FFFFFF;}
	.st12{fill:#5CC1E6;}
	.st13{fill:none;stroke:#5CC1E6;stroke-width:0.5;stroke-miterlimit:10;}
	.st14{fill:#F3F3FF;}
	.st15{fill:#DEDEF9;}
	.st16{fill:#456884;}
	.st17{fill:#CBE1F8;}
	.st18{fill:#67A4D3;}
	.st19{fill:#CCCCCC;}
	.st20{fill:#FF003B;}
	.st21{fill:#515151;}
	.st22{fill:#FF396D;}
	.st23{fill:#E5616E;}
	.st24{fill:#FFE200;}
	.st25{fill:#7C7C7C;}
	.st26{fill:#666666;}
	.st27{fill:#939393;}
	.st28{fill:#5CA1E5;}
	.st29{fill:#494949;}
	.st30{fill:#474747;}
	.st31{fill:#8983FF;}
	.st32{fill:#F77F7F;}
	.st33{opacity:0.2;fill:#5CC1E6;}
	.st34{fill:#5CA3E5;}
	.st35{fill:#999999;}
	.st36{fill:#FFCC00;}
	.st37{fill:#FFDF57;}
	.st38{fill:#EDC5C6;}
	.st39{fill:#E03F0E;}
	.st40{fill:#E3B668;}
	.st41{fill:#9E620D;}
	.st42{fill:#623E0A;}
	.st43{fill:#FF9F3F;}
	.st44{fill:#D7D7F4;}
	.st45{fill:#336699;}
	.st46{fill:#33CC00;}
	.st47{fill:#88D600;}
	.st48{fill:#F48725;}
	.st49{fill:#5CABE5;}
	.st50{fill:#81BC00;}
	.st51{fill:#751813;}
	.st52{fill:#590F10;}
	.st53{fill:#FF8270;}
	.st54{fill:#E8685B;}
	.st55{fill:#EC563D;}
	.st56{fill:#DFDFF4;}
	.st57{fill:#A3E01E;}
	.st58{fill:#C9F270;}
	.st59{fill:#FF0000;}
	.st60{fill:#E50A0A;}
	.st61{fill:#E2E2F7;}
	.st62{fill:#ED003E;}
	.st63{fill:#5C9DE5;}
	.st64{fill:#CE3537;}
	.st65{fill:#8D2929;}
	.st66{fill:#638CA8;}
	.st67{fill:#56829B;}
</style>
<g>
	<g>
		<path class="st0" d="M59.04,21.06C52.46,13.77,43.12,8.7,33.07,6.97c-3.17-0.55-6.57-0.75-9.52,0.47c-3.51,1.45-5.82,4.71-7,8.11
			s-1.42,7.01-1.95,10.56s-1.39,7.16-3.63,10.07c-2,2.6-5.08,4.66-5.82,7.78C4.4,47.13,6.5,50.44,9.4,52.27s6.46,2.46,9.92,2.93
			c3.46,0.48,7.01,0.85,10.17,2.27c6.32,2.83,10.31,9.49,17.08,11.16c5.81,1.43,12.08-1.45,15.88-5.78
			c3.59-4.08,6.49-10.87,6.55-16.22c0.07-5.88-1.4-12.03-4.17-17.27C63.26,26.39,61.32,23.6,59.04,21.06z"/>
		<path class="st1" d="M52.94,59.04c7.29-6.57,12.37-15.92,14.1-25.97c0.55-3.17,0.75-6.57-0.47-9.52c-1.45-3.51-4.71-5.82-8.11-7
			s-7.01-1.42-10.56-1.95s-7.16-1.39-10.07-3.63c-2.6-2-4.66-5.08-7.78-5.82C26.87,4.4,23.56,6.5,21.73,9.4
			c-1.82,2.9-2.46,6.46-2.93,9.92c-0.48,3.46-0.85,7.01-2.27,10.17C13.7,35.8,7.04,39.79,5.37,46.57
			c-1.43,5.81,1.45,12.08,5.78,15.88c4.08,3.59,10.87,6.49,16.22,6.55c5.88,0.07,12.03-1.4,17.27-4.17
			C47.61,63.26,50.4,61.32,52.94,59.04z"/>
	</g>
	<path class="st7" d="M45.46,40.05l-0.35-4.7c-0.01-0.08,0.02-0.16,0.08-0.21l16.76-16.39c0.57-0.54,1.48-0.47,1.96,0.15v0
		c0.44,0.56,0.36,1.37-0.18,1.84L46.8,35.5L45.46,40.05z"/>
	<path class="st6" d="M57.36,58.91c0,0.9-7.68,1.64-17.17,1.64c-9.47,0-17.17-0.74-17.17-1.64c0-0.9,7.7-1.65,17.17-1.65
		C49.68,57.25,57.36,58,57.36,58.91z"/>
	<g>
		<g>
			<line class="st13" x1="41.59" y1="23.05" x2="42.54" y2="24"/>
			<line class="st13" x1="43.64" y1="25.1" x2="44.59" y2="26.05"/>
			<line class="st13" x1="44.59" y1="23.05" x2="43.64" y2="24"/>
			<line class="st13" x1="42.54" y1="25.1" x2="41.59" y2="26.05"/>
		</g>
		<g>
			<line class="st13" x1="6.98" y1="42.85" x2="7.93" y2="43.8"/>
			<line class="st13" x1="9.03" y1="44.9" x2="9.98" y2="45.85"/>
			<line class="st13" x1="9.98" y1="42.85" x2="9.03" y2="43.8"/>
			<line class="st13" x1="7.93" y1="44.9" x2="6.98" y2="45.85"/>
		</g>
		<g>
			<line class="st13" x1="38.58" y1="64.19" x2="39.53" y2="65.14"/>
			<line class="st13" x1="40.63" y1="66.24" x2="41.58" y2="67.19"/>
			<line class="st13" x1="41.58" y1="64.19" x2="40.63" y2="65.14"/>
			<line class="st13" x1="39.53" y1="66.24" x2="38.58" y2="67.19"/>
		</g>
		<path class="st13" d="M43.31,10.75c0,0.67-0.54,1.22-1.22,1.22s-1.22-0.54-1.22-1.22c0-0.66,0.54-1.21,1.22-1.21
			S43.31,10.09,43.31,10.75z"/>
		<path class="st13" d="M64.79,35.87c0,0.77-0.62,1.39-1.39,1.39s-1.39-0.62-1.39-1.39c0-0.76,0.62-1.38,1.39-1.38
			S64.79,35.11,64.79,35.87z"/>
		<path class="st13" d="M15.24,64.38c0,0.67-0.54,1.21-1.21,1.21s-1.21-0.54-1.21-1.21c0-0.66,0.54-1.19,1.21-1.19
			S15.24,63.73,15.24,64.38z"/>
		<line class="st13" x1="17.39" y1="14.79" x2="22.39" y2="14.79"/>
		<line class="st13" x1="17.35" y1="50.45" x2="24.76" y2="50.45"/>
		<line class="st13" x1="60.9" y1="58.91" x2="65.9" y2="58.91"/>
	</g>
	<g>
		<path class="st2" d="M21.41,51.08l0.63-11.03h36.31l0.63,11.03c0.14,2.49-1.84,4.59-4.33,4.59h-28.9
			C23.25,55.67,21.27,53.58,21.41,51.08z"/>
		<g>
			<path class="st5" d="M50.77,39.28c-3.52-1.24-7.05-1.24-10.57,0c0,6.6,2.37,11.97,5.28,11.97C48.4,51.25,50.77,45.88,50.77,39.28
				z"/>
			<path class="st4" d="M40.97,33.13c3.01-0.9,6.02-0.9,9.03,0c0.46,0.14,0.78,0.58,0.76,1.07c-0.18,6.23-2.47,11.16-5.26,11.16
				c-2.81,0-5.1-4.93-5.29-11.16C40.19,33.72,40.51,33.27,40.97,33.13z"/>
			<path class="st4" d="M30.39,39.03c3.01-0.9,6.02-0.9,9.03,0c0.46,0.14,0.78,0.58,0.76,1.07c-0.18,6.23-2.47,11.16-5.26,11.16
				c-2.81,0-5.1-4.93-5.29-11.16C29.62,39.61,29.93,39.17,30.39,39.03z"/>
			<path class="st4" d="M22.17,39.82c1.72-0.92,4.27-1.38,6.59-0.81c0.5,0.12,0.87,0.57,0.85,1.08c-0.14,5.36-1.64,10.35-3.84,10.35
				c-2.24,0-4.07-4.26-4.2-9.63C21.56,40.4,21.8,40.01,22.17,39.82z"/>
			<path class="st4" d="M58.22,39.82c-1.72-0.92-4.27-1.38-6.59-0.81c-0.5,0.12-0.87,0.57-0.85,1.08
				c0.14,5.36,1.64,10.35,3.84,10.35c2.24,0,4.07-4.26,4.2-9.63C58.83,40.4,58.59,40.01,58.22,39.82z"/>
		</g>
		<path class="st4" d="M41.28,50.06c0.42-0.73,0.16-1.65-0.56-2.06c0.73,0.42,1.65,0.16,2.06-0.56c-0.42,0.73-0.16,1.65,0.56,2.06
			C42.61,49.08,41.69,49.34,41.28,50.06z"/>
		<path class="st5" d="M36.43,43.78c0.5-0.87,0.19-1.97-0.67-2.47c0.87,0.5,1.97,0.19,2.47-0.67c-0.5,0.87-0.2,1.97,0.67,2.47
			C38.03,42.61,36.93,42.91,36.43,43.78z"/>
		<path class="st4" d="M48.73,47.93c0.41-0.71,0.16-1.62-0.55-2.02c0.71,0.41,1.62,0.16,2.02-0.55c-0.41,0.71-0.16,1.62,0.55,2.02
			C50.04,46.97,49.14,47.22,48.73,47.93z"/>
	</g>
	<g>
		<path class="st31" d="M43.34,37.92l0.11-4.72c0-0.08,0.04-0.16,0.1-0.2l18.49-14.36c0.62-0.48,1.52-0.32,1.94,0.34v0
			c0.38,0.6,0.22,1.4-0.36,1.81l-18.5,12.73L43.34,37.92z"/>
		<g>
			<g>
				<polygon class="st7" points="58.3,21.55 59.8,23.42 60.52,22.92 58.98,21.02 				"/>
			</g>
			<g>
				<polygon class="st7" points="56.7,22.79 58.14,24.56 58.85,24.07 57.38,22.27 				"/>
			</g>
			<g>
				<polygon class="st7" points="55.11,24.03 56.47,25.71 57.19,25.22 55.79,23.5 				"/>
			</g>
			<g>
				<polygon class="st7" points="53.51,25.27 54.8,26.86 55.52,26.36 54.2,24.74 				"/>
			</g>
			<g>
				<polygon class="st7" points="51.92,26.5 53.13,28 53.85,27.51 52.6,25.98 				"/>
			</g>
			<g>
				<polygon class="st7" points="50.33,27.74 51.46,29.15 52.18,28.66 51.01,27.21 				"/>
			</g>
			<g>
				<polygon class="st7" points="48.74,28.97 49.8,30.3 50.51,29.8 49.41,28.45 				"/>
			</g>
		</g>
	</g>
	<g>
		<rect x="14.54" y="20.3" class="st12" width="19.41" height="13.66"/>
		<rect x="15.4" y="21.15" class="st4" width="17.69" height="11.95"/>
		<rect x="16.82" y="22.58" class="st16" width="14.84" height="9.1"/>
		<g>
			<path class="st2" d="M18.59,28.47l0.19-3.32h10.93l0.19,3.32c0.04,0.75-0.55,1.38-1.3,1.38h-8.7
				C19.15,29.85,18.55,29.22,18.59,28.47z"/>
			<g>
				<g>
					<path class="st17" d="M27.2,24.84c-0.91-0.27-1.81-0.27-2.72,0c-0.14,0.04-0.23,0.18-0.23,0.32c0.06,1.87,0.74,3.36,1.58,3.36
						c0.85,0,1.54-1.48,1.59-3.36C27.43,25.02,27.33,24.88,27.2,24.84z"/>
					<path class="st17" d="M21.3,24.84c0.91-0.27,1.81-0.27,2.72,0c0.14,0.04,0.23,0.18,0.23,0.32c-0.06,1.87-0.74,3.36-1.58,3.36
						c-0.85,0-1.54-1.48-1.59-3.36C21.06,25.02,21.16,24.88,21.3,24.84z"/>
					<path class="st17" d="M18.82,25.08c0.52-0.28,1.29-0.42,1.98-0.24c0.15,0.04,0.26,0.17,0.26,0.33
						c-0.04,1.61-0.49,3.12-1.16,3.12c-0.67,0-1.22-1.28-1.26-2.9C18.64,25.25,18.71,25.14,18.82,25.08z"/>
					<path class="st17" d="M29.67,25.08c-0.52-0.28-1.29-0.42-1.98-0.24c-0.15,0.04-0.26,0.17-0.26,0.33
						c0.04,1.61,0.49,3.12,1.16,3.12c0.67,0,1.22-1.28,1.26-2.9C29.85,25.25,29.78,25.14,29.67,25.08z"/>
				</g>
			</g>
		</g>
		<path class="st4" d="M21.44,27.88c0.17-0.31,0.07-0.69-0.24-0.87c0.31,0.17,0.69,0.07,0.87-0.24c-0.17,0.31-0.07,0.69,0.24,0.87
			C22,27.47,21.62,27.58,21.44,27.88z"/>
		<path class="st4" d="M23.29,25.75c0.29-0.5,0.11-1.13-0.39-1.42c0.5,0.29,1.13,0.11,1.42-0.39c-0.29,0.5-0.11,1.13,0.39,1.42
			C24.21,25.08,23.58,25.25,23.29,25.75z"/>
		<path class="st4" d="M24.99,27.17c0.21-0.36,0.08-0.82-0.28-1.02c0.36,0.21,0.82,0.08,1.02-0.28c-0.21,0.36-0.08,0.82,0.28,1.02
			C25.65,26.68,25.2,26.81,24.99,27.17z"/>
	</g>
</g>
</svg>
